<mxfile host="Electron" agent="Mozilla/5.0 (Windows NT 10.0; Win64; x64) AppleWebKit/537.36 (KHTML, like Gecko) draw.io/24.7.8 Chrome/128.0.6613.36 Electron/32.0.1 Safari/537.36" version="24.7.8">
  <diagram name="Page-1" id="lNHsyLe6jc0KYchkHCCJ">
    <mxGraphModel dx="1400" dy="828" grid="1" gridSize="10" guides="1" tooltips="1" connect="1" arrows="1" fold="1" page="1" pageScale="1" pageWidth="850" pageHeight="1100" math="0" shadow="0">
      <root>
        <mxCell id="0" />
        <mxCell id="1" parent="0" />
        <mxCell id="9PY5LoeDze9ioaXtPcgd-4" value="" style="edgeStyle=orthogonalEdgeStyle;rounded=0;orthogonalLoop=1;jettySize=auto;html=1;" edge="1" parent="1" source="9PY5LoeDze9ioaXtPcgd-1" target="9PY5LoeDze9ioaXtPcgd-2">
          <mxGeometry relative="1" as="geometry">
            <Array as="points">
              <mxPoint x="270" y="110" />
              <mxPoint x="310" y="110" />
            </Array>
          </mxGeometry>
        </mxCell>
        <mxCell id="9PY5LoeDze9ioaXtPcgd-1" value="User" style="rounded=0;whiteSpace=wrap;html=1;" vertex="1" parent="1">
          <mxGeometry x="230" y="50" width="80" height="40" as="geometry" />
        </mxCell>
        <mxCell id="9PY5LoeDze9ioaXtPcgd-30" value="" style="edgeStyle=orthogonalEdgeStyle;rounded=0;orthogonalLoop=1;jettySize=auto;html=1;" edge="1" parent="1" source="9PY5LoeDze9ioaXtPcgd-2" target="9PY5LoeDze9ioaXtPcgd-28">
          <mxGeometry relative="1" as="geometry" />
        </mxCell>
        <mxCell id="9PY5LoeDze9ioaXtPcgd-2" value="Load balancer" style="rounded=0;whiteSpace=wrap;html=1;" vertex="1" parent="1">
          <mxGeometry x="165" y="130" width="645" height="30" as="geometry" />
        </mxCell>
        <mxCell id="9PY5LoeDze9ioaXtPcgd-5" value="" style="whiteSpace=wrap;html=1;aspect=fixed;" vertex="1" parent="1">
          <mxGeometry x="40" y="210" width="80" height="80" as="geometry" />
        </mxCell>
        <mxCell id="9PY5LoeDze9ioaXtPcgd-15" value="" style="edgeStyle=orthogonalEdgeStyle;rounded=0;orthogonalLoop=1;jettySize=auto;html=1;" edge="1" parent="1" source="9PY5LoeDze9ioaXtPcgd-6" target="9PY5LoeDze9ioaXtPcgd-12">
          <mxGeometry relative="1" as="geometry" />
        </mxCell>
        <mxCell id="9PY5LoeDze9ioaXtPcgd-6" value="Post service" style="whiteSpace=wrap;html=1;aspect=fixed;direction=south;" vertex="1" parent="1">
          <mxGeometry x="60" y="220" width="80" height="80" as="geometry" />
        </mxCell>
        <mxCell id="9PY5LoeDze9ioaXtPcgd-11" value="Posts db" style="shape=cylinder3;whiteSpace=wrap;html=1;boundedLbl=1;backgroundOutline=1;size=15;" vertex="1" parent="1">
          <mxGeometry x="70" y="420" width="60" height="80" as="geometry" />
        </mxCell>
        <mxCell id="9PY5LoeDze9ioaXtPcgd-14" value="" style="edgeStyle=orthogonalEdgeStyle;rounded=0;orthogonalLoop=1;jettySize=auto;html=1;" edge="1" parent="1" source="9PY5LoeDze9ioaXtPcgd-12" target="9PY5LoeDze9ioaXtPcgd-11">
          <mxGeometry relative="1" as="geometry" />
        </mxCell>
        <mxCell id="9PY5LoeDze9ioaXtPcgd-72" style="edgeStyle=orthogonalEdgeStyle;rounded=0;orthogonalLoop=1;jettySize=auto;html=1;exitX=0;exitY=0.5;exitDx=0;exitDy=0;" edge="1" parent="1" source="9PY5LoeDze9ioaXtPcgd-12">
          <mxGeometry relative="1" as="geometry">
            <mxPoint x="30" y="850" as="targetPoint" />
          </mxGeometry>
        </mxCell>
        <mxCell id="9PY5LoeDze9ioaXtPcgd-12" value="Post cache" style="shape=parallelogram;perimeter=parallelogramPerimeter;whiteSpace=wrap;html=1;fixedSize=1;" vertex="1" parent="1">
          <mxGeometry x="50" y="330" width="100" height="50" as="geometry" />
        </mxCell>
        <mxCell id="9PY5LoeDze9ioaXtPcgd-19" value="Post feed" style="text;html=1;align=center;verticalAlign=middle;resizable=0;points=[];autosize=1;strokeColor=none;fillColor=none;" vertex="1" parent="1">
          <mxGeometry x="275" y="98" width="70" height="30" as="geometry" />
        </mxCell>
        <mxCell id="9PY5LoeDze9ioaXtPcgd-43" value="" style="edgeStyle=orthogonalEdgeStyle;rounded=0;orthogonalLoop=1;jettySize=auto;html=1;" edge="1" parent="1" source="9PY5LoeDze9ioaXtPcgd-23" target="9PY5LoeDze9ioaXtPcgd-41">
          <mxGeometry relative="1" as="geometry" />
        </mxCell>
        <mxCell id="9PY5LoeDze9ioaXtPcgd-23" value="Graph db" style="shape=cylinder3;whiteSpace=wrap;html=1;boundedLbl=1;backgroundOutline=1;size=15;" vertex="1" parent="1">
          <mxGeometry x="410" y="360" width="60" height="80" as="geometry" />
        </mxCell>
        <mxCell id="9PY5LoeDze9ioaXtPcgd-24" value="" style="whiteSpace=wrap;html=1;aspect=fixed;" vertex="1" parent="1">
          <mxGeometry x="405" y="230" width="80" height="80" as="geometry" />
        </mxCell>
        <mxCell id="9PY5LoeDze9ioaXtPcgd-25" value="Notification&amp;nbsp;&lt;div&gt;Service&lt;/div&gt;" style="whiteSpace=wrap;html=1;aspect=fixed;direction=south;" vertex="1" parent="1">
          <mxGeometry x="425" y="217" width="80" height="80" as="geometry" />
        </mxCell>
        <mxCell id="9PY5LoeDze9ioaXtPcgd-27" value="" style="whiteSpace=wrap;html=1;aspect=fixed;" vertex="1" parent="1">
          <mxGeometry x="220" y="215" width="80" height="80" as="geometry" />
        </mxCell>
        <mxCell id="9PY5LoeDze9ioaXtPcgd-42" value="" style="edgeStyle=orthogonalEdgeStyle;rounded=0;orthogonalLoop=1;jettySize=auto;html=1;" edge="1" parent="1" source="9PY5LoeDze9ioaXtPcgd-28" target="9PY5LoeDze9ioaXtPcgd-41">
          <mxGeometry relative="1" as="geometry" />
        </mxCell>
        <mxCell id="9PY5LoeDze9ioaXtPcgd-28" value="Web servers" style="whiteSpace=wrap;html=1;aspect=fixed;direction=south;" vertex="1" parent="1">
          <mxGeometry x="230" y="230" width="80" height="80" as="geometry" />
        </mxCell>
        <mxCell id="9PY5LoeDze9ioaXtPcgd-34" value="" style="endArrow=classic;html=1;rounded=0;" edge="1" parent="1">
          <mxGeometry width="50" height="50" relative="1" as="geometry">
            <mxPoint x="220" y="264.5" as="sourcePoint" />
            <mxPoint x="140" y="264.5" as="targetPoint" />
          </mxGeometry>
        </mxCell>
        <mxCell id="9PY5LoeDze9ioaXtPcgd-35" value="" style="endArrow=classic;html=1;rounded=0;exitX=0.385;exitY=0.02;exitDx=0;exitDy=0;exitPerimeter=0;" edge="1" parent="1" source="9PY5LoeDze9ioaXtPcgd-28">
          <mxGeometry width="50" height="50" relative="1" as="geometry">
            <mxPoint x="320" y="259.5" as="sourcePoint" />
            <mxPoint x="420" y="260" as="targetPoint" />
          </mxGeometry>
        </mxCell>
        <mxCell id="9PY5LoeDze9ioaXtPcgd-40" value="" style="whiteSpace=wrap;html=1;aspect=fixed;" vertex="1" parent="1">
          <mxGeometry x="220" y="350" width="80" height="80" as="geometry" />
        </mxCell>
        <mxCell id="9PY5LoeDze9ioaXtPcgd-53" value="" style="edgeStyle=orthogonalEdgeStyle;rounded=0;orthogonalLoop=1;jettySize=auto;html=1;" edge="1" parent="1" source="9PY5LoeDze9ioaXtPcgd-41" target="9PY5LoeDze9ioaXtPcgd-52">
          <mxGeometry relative="1" as="geometry" />
        </mxCell>
        <mxCell id="9PY5LoeDze9ioaXtPcgd-41" value="Fanout service" style="whiteSpace=wrap;html=1;aspect=fixed;direction=south;" vertex="1" parent="1">
          <mxGeometry x="230" y="360" width="80" height="80" as="geometry" />
        </mxCell>
        <mxCell id="9PY5LoeDze9ioaXtPcgd-44" value="get friend id&#39;s" style="text;html=1;align=center;verticalAlign=middle;resizable=0;points=[];autosize=1;strokeColor=none;fillColor=none;" vertex="1" parent="1">
          <mxGeometry x="305" y="378" width="90" height="30" as="geometry" />
        </mxCell>
        <mxCell id="9PY5LoeDze9ioaXtPcgd-45" value="Rate limiting,&lt;div&gt;Authentication&amp;nbsp;&lt;/div&gt;&lt;div&gt;are included in&amp;nbsp;&lt;/div&gt;&lt;div&gt;notification service&lt;/div&gt;" style="text;html=1;align=left;verticalAlign=middle;resizable=0;points=[];autosize=1;strokeColor=none;fillColor=none;" vertex="1" parent="1">
          <mxGeometry x="460" y="295" width="120" height="70" as="geometry" />
        </mxCell>
        <mxCell id="9PY5LoeDze9ioaXtPcgd-46" value="Users db" style="shape=cylinder3;whiteSpace=wrap;html=1;boundedLbl=1;backgroundOutline=1;size=15;" vertex="1" parent="1">
          <mxGeometry x="415" y="600" width="60" height="80" as="geometry" />
        </mxCell>
        <mxCell id="9PY5LoeDze9ioaXtPcgd-49" value="" style="edgeStyle=orthogonalEdgeStyle;rounded=0;orthogonalLoop=1;jettySize=auto;html=1;" edge="1" parent="1" source="9PY5LoeDze9ioaXtPcgd-47" target="9PY5LoeDze9ioaXtPcgd-46">
          <mxGeometry relative="1" as="geometry" />
        </mxCell>
        <mxCell id="9PY5LoeDze9ioaXtPcgd-50" style="edgeStyle=orthogonalEdgeStyle;rounded=0;orthogonalLoop=1;jettySize=auto;html=1;exitX=0;exitY=0.5;exitDx=0;exitDy=0;entryX=0.75;entryY=0;entryDx=0;entryDy=0;" edge="1" parent="1" source="9PY5LoeDze9ioaXtPcgd-47" target="9PY5LoeDze9ioaXtPcgd-41">
          <mxGeometry relative="1" as="geometry" />
        </mxCell>
        <mxCell id="9PY5LoeDze9ioaXtPcgd-51" value="get users data" style="edgeLabel;html=1;align=center;verticalAlign=middle;resizable=0;points=[];" vertex="1" connectable="0" parent="9PY5LoeDze9ioaXtPcgd-50">
          <mxGeometry x="0.1514" y="1" relative="1" as="geometry">
            <mxPoint y="1" as="offset" />
          </mxGeometry>
        </mxCell>
        <mxCell id="9PY5LoeDze9ioaXtPcgd-70" style="edgeStyle=orthogonalEdgeStyle;rounded=0;orthogonalLoop=1;jettySize=auto;html=1;entryX=1;entryY=0.75;entryDx=0;entryDy=0;" edge="1" parent="1" source="9PY5LoeDze9ioaXtPcgd-47" target="9PY5LoeDze9ioaXtPcgd-67">
          <mxGeometry relative="1" as="geometry">
            <mxPoint x="530" y="510" as="targetPoint" />
          </mxGeometry>
        </mxCell>
        <mxCell id="9PY5LoeDze9ioaXtPcgd-47" value="Users cache" style="shape=parallelogram;perimeter=parallelogramPerimeter;whiteSpace=wrap;html=1;fixedSize=1;" vertex="1" parent="1">
          <mxGeometry x="395" y="485" width="100" height="50" as="geometry" />
        </mxCell>
        <mxCell id="9PY5LoeDze9ioaXtPcgd-57" value="" style="edgeStyle=orthogonalEdgeStyle;rounded=0;orthogonalLoop=1;jettySize=auto;html=1;" edge="1" parent="1" source="9PY5LoeDze9ioaXtPcgd-52" target="9PY5LoeDze9ioaXtPcgd-55">
          <mxGeometry relative="1" as="geometry" />
        </mxCell>
        <mxCell id="9PY5LoeDze9ioaXtPcgd-52" value="Queue" style="shape=cylinder3;whiteSpace=wrap;html=1;boundedLbl=1;backgroundOutline=1;size=3.60003662109375;direction=west;" vertex="1" parent="1">
          <mxGeometry x="250" y="490" width="40" height="80" as="geometry" />
        </mxCell>
        <mxCell id="9PY5LoeDze9ioaXtPcgd-54" value="" style="whiteSpace=wrap;html=1;aspect=fixed;" vertex="1" parent="1">
          <mxGeometry x="225" y="620" width="80" height="80" as="geometry" />
        </mxCell>
        <mxCell id="9PY5LoeDze9ioaXtPcgd-60" value="" style="edgeStyle=orthogonalEdgeStyle;rounded=0;orthogonalLoop=1;jettySize=auto;html=1;" edge="1" parent="1" source="9PY5LoeDze9ioaXtPcgd-55" target="9PY5LoeDze9ioaXtPcgd-58">
          <mxGeometry relative="1" as="geometry" />
        </mxCell>
        <mxCell id="9PY5LoeDze9ioaXtPcgd-55" value="Workers" style="whiteSpace=wrap;html=1;aspect=fixed;direction=south;" vertex="1" parent="1">
          <mxGeometry x="230" y="630" width="80" height="80" as="geometry" />
        </mxCell>
        <mxCell id="9PY5LoeDze9ioaXtPcgd-58" value="News Feed cache" style="shape=parallelogram;perimeter=parallelogramPerimeter;whiteSpace=wrap;html=1;fixedSize=1;" vertex="1" parent="1">
          <mxGeometry x="202.5" y="750" width="135" height="50" as="geometry" />
        </mxCell>
        <mxCell id="9PY5LoeDze9ioaXtPcgd-59" value="user_id : List[post_id&#39;s]" style="text;html=1;align=center;verticalAlign=middle;resizable=0;points=[];autosize=1;strokeColor=none;fillColor=none;" vertex="1" parent="1">
          <mxGeometry x="335" y="768" width="150" height="30" as="geometry" />
        </mxCell>
        <mxCell id="9PY5LoeDze9ioaXtPcgd-64" value="" style="edgeStyle=orthogonalEdgeStyle;rounded=0;orthogonalLoop=1;jettySize=auto;html=1;" edge="1" parent="1" source="9PY5LoeDze9ioaXtPcgd-63" target="9PY5LoeDze9ioaXtPcgd-2">
          <mxGeometry relative="1" as="geometry">
            <Array as="points">
              <mxPoint x="760" y="110" />
              <mxPoint x="690" y="110" />
            </Array>
          </mxGeometry>
        </mxCell>
        <mxCell id="9PY5LoeDze9ioaXtPcgd-63" value="User" style="rounded=0;whiteSpace=wrap;html=1;" vertex="1" parent="1">
          <mxGeometry x="720" y="40" width="80" height="40" as="geometry" />
        </mxCell>
        <mxCell id="9PY5LoeDze9ioaXtPcgd-65" value="Get feed" style="text;html=1;align=center;verticalAlign=middle;resizable=0;points=[];autosize=1;strokeColor=none;fillColor=none;" vertex="1" parent="1">
          <mxGeometry x="605" y="88" width="70" height="30" as="geometry" />
        </mxCell>
        <mxCell id="9PY5LoeDze9ioaXtPcgd-66" value="" style="whiteSpace=wrap;html=1;aspect=fixed;" vertex="1" parent="1">
          <mxGeometry x="680" y="200" width="80" height="80" as="geometry" />
        </mxCell>
        <mxCell id="9PY5LoeDze9ioaXtPcgd-68" style="edgeStyle=orthogonalEdgeStyle;rounded=0;orthogonalLoop=1;jettySize=auto;html=1;exitX=1;exitY=0.5;exitDx=0;exitDy=0;entryX=1;entryY=0.5;entryDx=0;entryDy=0;" edge="1" parent="1" source="9PY5LoeDze9ioaXtPcgd-67" target="9PY5LoeDze9ioaXtPcgd-58">
          <mxGeometry relative="1" as="geometry">
            <mxPoint x="730" y="770" as="targetPoint" />
            <Array as="points">
              <mxPoint x="730" y="690" />
              <mxPoint x="328" y="690" />
            </Array>
          </mxGeometry>
        </mxCell>
        <mxCell id="9PY5LoeDze9ioaXtPcgd-69" value="" style="edgeStyle=orthogonalEdgeStyle;rounded=0;orthogonalLoop=1;jettySize=auto;html=1;" edge="1" parent="1" source="9PY5LoeDze9ioaXtPcgd-67" target="9PY5LoeDze9ioaXtPcgd-2">
          <mxGeometry relative="1" as="geometry" />
        </mxCell>
        <mxCell id="9PY5LoeDze9ioaXtPcgd-71" style="edgeStyle=orthogonalEdgeStyle;rounded=0;orthogonalLoop=1;jettySize=auto;html=1;" edge="1" parent="1" source="9PY5LoeDze9ioaXtPcgd-67">
          <mxGeometry relative="1" as="geometry">
            <mxPoint x="790" y="850" as="targetPoint" />
          </mxGeometry>
        </mxCell>
        <mxCell id="9PY5LoeDze9ioaXtPcgd-67" value="Feed service" style="whiteSpace=wrap;html=1;aspect=fixed;direction=south;" vertex="1" parent="1">
          <mxGeometry x="690" y="215" width="80" height="80" as="geometry" />
        </mxCell>
        <mxCell id="9PY5LoeDze9ioaXtPcgd-73" value="" style="endArrow=classic;startArrow=classic;html=1;rounded=0;" edge="1" parent="1">
          <mxGeometry width="50" height="50" relative="1" as="geometry">
            <mxPoint x="30" y="850" as="sourcePoint" />
            <mxPoint x="790" y="850" as="targetPoint" />
          </mxGeometry>
        </mxCell>
      </root>
    </mxGraphModel>
  </diagram>
</mxfile>
